<?xml version="1.0" encoding="UTF-8" standalone="no"?>
<!DOCTYPE svg PUBLIC "-//W3C//DTD SVG 1.1//EN"
 "http://www.w3.org/Graphics/SVG/1.1/DTD/svg11.dtd">
<!-- Generated by graphviz version 14.1.1 (20251213.1925)
 -->
<!-- Title: InheritanceTree Pages: 1 -->
<svg width="356pt" height="213pt"
 viewBox="0.00 0.00 356.00 213.00" xmlns="http://www.w3.org/2000/svg" xmlns:xlink="http://www.w3.org/1999/xlink">
<g id="graph0" class="graph" transform="scale(1 1) rotate(0) translate(4 208.5)">
<title>InheritanceTree</title>
<polygon fill="white" stroke="none" points="-4,4 -4,-208.5 351.75,-208.5 351.75,4 -4,4"/>
<text xml:space="preserve" text-anchor="middle" x="173.88" y="-7.2" font-family="Times New Roman,serif" font-size="14.00">simple_base64 &#45; Inheritance Hierarchy</text>
<!-- SIMPLE_BASE64 -->
<g id="node1" class="node">
<title>SIMPLE_BASE64</title>
<path fill="none" stroke="black" d="M107.5,-60.5C107.5,-60.5 12,-60.5 12,-60.5 6,-60.5 0,-54.5 0,-48.5 0,-48.5 0,-36.5 0,-36.5 0,-30.5 6,-24.5 12,-24.5 12,-24.5 107.5,-24.5 107.5,-24.5 113.5,-24.5 119.5,-30.5 119.5,-36.5 119.5,-36.5 119.5,-48.5 119.5,-48.5 119.5,-54.5 113.5,-60.5 107.5,-60.5"/>
<text xml:space="preserve" text-anchor="middle" x="59.75" y="-37.45" font-family="Times New Roman,serif" font-size="14.00">SIMPLE_BASE64</text>
</g>
<!-- LIB_TESTS -->
<g id="node2" class="node">
<title>LIB_TESTS</title>
<path fill="none" stroke="black" d="M89.88,-132.5C89.88,-132.5 29.62,-132.5 29.62,-132.5 23.62,-132.5 17.62,-126.5 17.62,-120.5 17.62,-120.5 17.62,-108.5 17.62,-108.5 17.62,-102.5 23.62,-96.5 29.62,-96.5 29.62,-96.5 89.88,-96.5 89.88,-96.5 95.88,-96.5 101.88,-102.5 101.88,-108.5 101.88,-108.5 101.88,-120.5 101.88,-120.5 101.88,-126.5 95.88,-132.5 89.88,-132.5"/>
<text xml:space="preserve" text-anchor="middle" x="59.75" y="-109.45" font-family="Times New Roman,serif" font-size="14.00">LIB_TESTS</text>
</g>
<!-- TEST_SET_BASE -->
<g id="node3" class="node">
<title>TEST_SET_BASE</title>
<path fill="none" stroke="black" d="M335.75,-132.5C335.75,-132.5 239.5,-132.5 239.5,-132.5 233.5,-132.5 227.5,-126.5 227.5,-120.5 227.5,-120.5 227.5,-108.5 227.5,-108.5 227.5,-102.5 233.5,-96.5 239.5,-96.5 239.5,-96.5 335.75,-96.5 335.75,-96.5 341.75,-96.5 347.75,-102.5 347.75,-108.5 347.75,-108.5 347.75,-120.5 347.75,-120.5 347.75,-126.5 341.75,-132.5 335.75,-132.5"/>
<text xml:space="preserve" text-anchor="middle" x="287.62" y="-109.45" font-family="Times New Roman,serif" font-size="14.00">TEST_SET_BASE</text>
</g>
<!-- LIB_TESTS&#45;&gt;TEST_SET_BASE -->
<g id="edge1" class="edge">
<title>LIB_TESTS&#45;&gt;TEST_SET_BASE</title>
<path fill="none" stroke="black" d="M102.34,-114.5C102.34,-114.5 215.67,-114.5 215.67,-114.5"/>
<polygon fill="none" stroke="black" points="215.67,-118 225.67,-114.5 215.67,-111 215.67,-118"/>
</g>
<!-- TEST_APP -->
<g id="node4" class="node">
<title>TEST_APP</title>
<path fill="none" stroke="black" d="M87.62,-204.5C87.62,-204.5 31.88,-204.5 31.88,-204.5 25.88,-204.5 19.88,-198.5 19.88,-192.5 19.88,-192.5 19.88,-180.5 19.88,-180.5 19.88,-174.5 25.88,-168.5 31.88,-168.5 31.88,-168.5 87.62,-168.5 87.62,-168.5 93.62,-168.5 99.62,-174.5 99.62,-180.5 99.62,-180.5 99.62,-192.5 99.62,-192.5 99.62,-198.5 93.62,-204.5 87.62,-204.5"/>
<text xml:space="preserve" text-anchor="middle" x="59.75" y="-181.45" font-family="Times New Roman,serif" font-size="14.00">TEST_APP</text>
</g>
</g>
</svg>
