<?xml version="1.0" encoding="UTF-8" standalone="no"?>
<!DOCTYPE svg PUBLIC "-//W3C//DTD SVG 1.1//EN"
 "http://www.w3.org/Graphics/SVG/1.1/DTD/svg11.dtd">
<!-- Generated by graphviz version 14.1.1 (20251213.1925)
 -->
<!-- Title: ContractCoverage Pages: 1 -->
<svg width="816pt" height="691pt"
 viewBox="48.00 48.00 768.00 643.00" xmlns="http://www.w3.org/2000/svg" xmlns:xlink="http://www.w3.org/1999/xlink">
<g id="graph0" class="graph" transform="scale(1.14524 1.14524) rotate(0) translate(45.91 557.54)">
<title>ContractCoverage</title>
<polygon fill="white" stroke="none" points="-4,4 -4,-515.62 624.69,-515.62 624.69,4 -4,4"/>
<text xml:space="preserve" text-anchor="middle" x="310.34" y="-498.12" font-family="Times New Roman,serif" font-size="10.00">simple_base64 &#45; Contract Coverage</text>
<g id="clust1" class="cluster">
<title>cluster_SIMPLE_BASE64</title>
<polygon fill="white" stroke="black" points="0,-47.87 0,-378.38 358,-378.38 358,-47.87 0,-47.87"/>
<text xml:space="preserve" text-anchor="middle" x="179" y="-361.07" font-family="Times New Roman,serif" font-size="14.00">SIMPLE_BASE64</text>
</g>
<g id="clust2" class="cluster">
<title>cluster_LIB_TESTS</title>
<polygon fill="white" stroke="black" points="263.25,-431.87 263.25,-492.37 358.75,-492.37 358.75,-431.87 263.25,-431.87"/>
<text xml:space="preserve" text-anchor="middle" x="311" y="-475.07" font-family="Times New Roman,serif" font-size="14.00">LIB_TESTS</text>
</g>
<g id="clust3" class="cluster">
<title>cluster_TEST_APP</title>
<polygon fill="white" stroke="black" points="408,-240.38 408,-415.88 582,-415.88 582,-240.38 408,-240.38"/>
<text xml:space="preserve" text-anchor="middle" x="495" y="-398.57" font-family="Times New Roman,serif" font-size="14.00">TEST_APP</text>
</g>
<g id="clust4" class="cluster">
<title>cluster_legend</title>
<polygon fill="lightyellow" stroke="black" points="407.31,0 407.31,-188.25 620.69,-188.25 620.69,0 407.31,0"/>
<text xml:space="preserve" text-anchor="middle" x="514" y="-174.75" font-family="Times New Roman,serif" font-size="10.00">Legend</text>
</g>
<!-- SIMPLE_BASE64_make -->
<g id="node1" class="node">
<title>SIMPLE_BASE64_make</title>
<polygon fill="lightcoral" stroke="black" points="54,-233.87 0,-233.87 0,-197.87 54,-197.87 54,-233.87"/>
<text xml:space="preserve" text-anchor="middle" x="27" y="-212" font-family="Times New Roman,serif" font-size="10.00">make</text>
</g>
<!-- SIMPLE_BASE64_encode -->
<g id="node2" class="node">
<title>SIMPLE_BASE64_encode</title>
<polygon fill="lightgray" stroke="black" points="54,-293.88 0,-293.88 0,-257.88 54,-257.88 54,-293.88"/>
<text xml:space="preserve" text-anchor="middle" x="27" y="-272" font-family="Times New Roman,serif" font-size="10.00">encode</text>
</g>
<!-- SIMPLE_BASE64_to_base64 -->
<g id="node3" class="node">
<title>SIMPLE_BASE64_to_base64</title>
<polygon fill="lightgray" stroke="black" points="358,-209.88 300,-209.88 300,-173.88 358,-173.88 358,-209.88"/>
<text xml:space="preserve" text-anchor="middle" x="329" y="-188" font-family="Times New Roman,serif" font-size="10.00">to_base64</text>
</g>
<!-- SIMPLE_BASE64_encode_string -->
<g id="node4" class="node">
<title>SIMPLE_BASE64_encode_string</title>
<polygon fill="lightgray" stroke="black" points="120.87,-353.88 47.12,-353.88 47.12,-317.88 120.87,-317.88 120.87,-353.88"/>
<text xml:space="preserve" text-anchor="middle" x="84" y="-332" font-family="Times New Roman,serif" font-size="10.00">encode_string</text>
</g>
<!-- SIMPLE_BASE64_base64_encode -->
<g id="node5" class="node">
<title>SIMPLE_BASE64_base64_encode</title>
<polygon fill="palegreen" stroke="black" points="300.5,-149.87 221.5,-149.87 221.5,-113.87 300.5,-113.87 300.5,-149.87"/>
<text xml:space="preserve" text-anchor="middle" x="261" y="-128" font-family="Times New Roman,serif" font-size="10.00">base64_encode</text>
</g>
<!-- SIMPLE_BASE64_encode_bytes -->
<g id="node6" class="node">
<title>SIMPLE_BASE64_encode_bytes</title>
<polygon fill="palegreen" stroke="black" points="132.12,-143.87 59.88,-143.87 59.88,-107.87 132.12,-107.87 132.12,-143.87"/>
<text xml:space="preserve" text-anchor="middle" x="96" y="-122" font-family="Times New Roman,serif" font-size="10.00">encode_bytes</text>
</g>
<!-- SIMPLE_BASE64_encode_url -->
<g id="node7" class="node">
<title>SIMPLE_BASE64_encode_url</title>
<polygon fill="lightgray" stroke="black" points="306.87,-89.87 245.12,-89.87 245.12,-53.87 306.87,-53.87 306.87,-89.87"/>
<text xml:space="preserve" text-anchor="middle" x="276" y="-68" font-family="Times New Roman,serif" font-size="10.00">encode_url</text>
</g>
<!-- SIMPLE_BASE64_to_base64url -->
<g id="node8" class="node">
<title>SIMPLE_BASE64_to_base64url</title>
<polygon fill="lightgray" stroke="black" points="224.62,-89.87 155.38,-89.87 155.38,-53.87 224.62,-53.87 224.62,-89.87"/>
<text xml:space="preserve" text-anchor="middle" x="190" y="-68" font-family="Times New Roman,serif" font-size="10.00">to_base64url</text>
</g>
<!-- SIMPLE_BASE64_encode_jwt -->
<g id="node9" class="node">
<title>SIMPLE_BASE64_encode_jwt</title>
<polygon fill="lightgray" stroke="black" points="64,-83.87 0,-83.87 0,-47.87 64,-47.87 64,-83.87"/>
<text xml:space="preserve" text-anchor="middle" x="32" y="-62" font-family="Times New Roman,serif" font-size="10.00">encode_jwt</text>
</g>
<!-- SIMPLE_BASE64_encode_token -->
<g id="node10" class="node">
<title>SIMPLE_BASE64_encode_token</title>
<polygon fill="palegreen" stroke="black" points="216.88,-353.88 143.13,-353.88 143.13,-317.88 216.88,-317.88 216.88,-353.88"/>
<text xml:space="preserve" text-anchor="middle" x="180" y="-332" font-family="Times New Roman,serif" font-size="10.00">encode_token</text>
</g>
<!-- SIMPLE_BASE64_encode_url_with_padding -->
<g id="node11" class="node">
<title>SIMPLE_BASE64_encode_url_with_padding</title>
<polygon fill="palegreen" stroke="black" points="202.37,-203.87 77.62,-203.87 77.62,-167.87 202.37,-167.87 202.37,-203.87"/>
<text xml:space="preserve" text-anchor="middle" x="140" y="-182" font-family="Times New Roman,serif" font-size="10.00">encode_url_with_padding</text>
</g>
<!-- SIMPLE_BASE64_encode_mime -->
<g id="node12" class="node">
<title>SIMPLE_BASE64_encode_mime</title>
<polygon fill="lightgray" stroke="black" points="312.5,-323.87 239.5,-323.87 239.5,-287.87 312.5,-287.87 312.5,-323.87"/>
<text xml:space="preserve" text-anchor="middle" x="276" y="-302" font-family="Times New Roman,serif" font-size="10.00">encode_mime</text>
</g>
<!-- SIMPLE_BASE64_input_not_void -->
<g id="node13" class="node">
<title>SIMPLE_BASE64_input_not_void</title>
<polygon fill="lightgray" stroke="black" points="158.25,-293.88 77.75,-293.88 77.75,-257.88 158.25,-257.88 158.25,-293.88"/>
<text xml:space="preserve" text-anchor="middle" x="118" y="-272" font-family="Times New Roman,serif" font-size="10.00">input_not_void</text>
</g>
<!-- SIMPLE_BASE64_encode_bytes_mime -->
<g id="node14" class="node">
<title>SIMPLE_BASE64_encode_bytes_mime</title>
<polygon fill="lightgray" stroke="black" points="280,-263.87 180,-263.87 180,-227.87 280,-227.87 280,-263.87"/>
<text xml:space="preserve" text-anchor="middle" x="230" y="-242" font-family="Times New Roman,serif" font-size="10.00">encode_bytes_mime</text>
</g>
<!-- LIB_TESTS_test_encode_empty -->
<g id="node15" class="node">
<title>LIB_TESTS_test_encode_empty</title>
<polygon fill="lightgray" stroke="black" points="358.75,-467.87 263.25,-467.87 263.25,-431.87 358.75,-431.87 358.75,-467.87"/>
<text xml:space="preserve" text-anchor="middle" x="311" y="-446" font-family="Times New Roman,serif" font-size="10.00">test_encode_empty</text>
</g>
<!-- TEST_APP_make -->
<g id="node16" class="node">
<title>TEST_APP_make</title>
<polygon fill="lightcoral" stroke="black" points="462,-276.38 408,-276.38 408,-240.38 462,-240.38 462,-276.38"/>
<text xml:space="preserve" text-anchor="middle" x="435" y="-254.5" font-family="Times New Roman,serif" font-size="10.00">make</text>
</g>
<!-- TEST_APP_tests -->
<g id="node17" class="node">
<title>TEST_APP_tests</title>
<polygon fill="lightgray" stroke="black" points="507,-331.38 453,-331.38 453,-295.38 507,-295.38 507,-331.38"/>
<text xml:space="preserve" text-anchor="middle" x="480" y="-309.5" font-family="Times New Roman,serif" font-size="10.00">tests</text>
</g>
<!-- TEST_APP_passed -->
<g id="node18" class="node">
<title>TEST_APP_passed</title>
<polygon fill="lightgray" stroke="black" points="572,-386.38 518,-386.38 518,-350.38 572,-350.38 572,-386.38"/>
<text xml:space="preserve" text-anchor="middle" x="545" y="-364.5" font-family="Times New Roman,serif" font-size="10.00">passed</text>
</g>
<!-- TEST_APP_failed -->
<g id="node19" class="node">
<title>TEST_APP_failed</title>
<polygon fill="lightgray" stroke="black" points="497,-391.38 443,-391.38 443,-355.38 497,-355.38 497,-391.38"/>
<text xml:space="preserve" text-anchor="middle" x="470" y="-369.5" font-family="Times New Roman,serif" font-size="10.00">failed</text>
</g>
<!-- TEST_APP_run_test -->
<g id="node20" class="node">
<title>TEST_APP_run_test</title>
<polygon fill="lightcoral" stroke="black" points="582,-306.38 528,-306.38 528,-270.38 582,-270.38 582,-306.38"/>
<text xml:space="preserve" text-anchor="middle" x="555" y="-284.5" font-family="Times New Roman,serif" font-size="10.00">run_test</text>
</g>
<!-- legend_full -->
<g id="node21" class="node">
<title>legend_full</title>
<polygon fill="palegreen" stroke="black" points="610.19,-105 495.94,-105 495.94,-64 610.19,-64 610.19,-105"/>
<text xml:space="preserve" text-anchor="middle" x="553.06" y="-87.7" font-family="Times New Roman,serif" font-size="14.00">Full Contract</text>
<text xml:space="preserve" text-anchor="middle" x="553.06" y="-71.2" font-family="Times New Roman,serif" font-size="14.00">(require + ensure)</text>
</g>
<!-- legend_partial -->
<g id="node22" class="node">
<title>legend_partial</title>
<polygon fill="khaki" stroke="black" points="620.69,-41 503.44,-41 503.44,0 620.69,0 620.69,-41"/>
<text xml:space="preserve" text-anchor="middle" x="562.06" y="-23.7" font-family="Times New Roman,serif" font-size="14.00">Partial Contract</text>
<text xml:space="preserve" text-anchor="middle" x="562.06" y="-7.2" font-family="Times New Roman,serif" font-size="14.00">(require or ensure)</text>
</g>
<!-- legend_none -->
<g id="node23" class="node">
<title>legend_none</title>
<polygon fill="lightcoral" stroke="black" points="602.44,-163.5 519.69,-163.5 519.69,-127.5 602.44,-127.5 602.44,-163.5"/>
<text xml:space="preserve" text-anchor="middle" x="561.06" y="-140.45" font-family="Times New Roman,serif" font-size="14.00">No Contract</text>
</g>
<!-- legend_attr -->
<g id="node24" class="node">
<title>legend_attr</title>
<polygon fill="lightgray" stroke="black" points="496.44,-169 431.69,-169 431.69,-128 496.44,-128 496.44,-169"/>
<text xml:space="preserve" text-anchor="middle" x="464.06" y="-151.7" font-family="Times New Roman,serif" font-size="14.00">Attribute</text>
<text xml:space="preserve" text-anchor="middle" x="464.06" y="-135.2" font-family="Times New Roman,serif" font-size="14.00">(n/a)</text>
</g>
<!-- legend_stats -->
<g id="node25" class="node">
<title>legend_stats</title>
<polygon fill="white" stroke="black" points="466.81,-107 407.31,-107 407.31,0 472.81,0 472.81,-101 466.81,-107"/>
<polyline fill="none" stroke="black" points="466.81,-107 466.81,-101"/>
<polyline fill="none" stroke="black" points="472.81,-101 466.81,-101"/>
<text xml:space="preserve" text-anchor="middle" x="440.06" y="-89.7" font-family="Times New Roman,serif" font-size="14.00">Statistics</text>
<text xml:space="preserve" text-anchor="middle" x="440.06" y="-73.2" font-family="Times New Roman,serif" font-size="14.00">Full: 4</text>
<text xml:space="preserve" text-anchor="middle" x="440.06" y="-56.7" font-family="Times New Roman,serif" font-size="14.00">Partial: 0</text>
<text xml:space="preserve" text-anchor="middle" x="440.06" y="-40.2" font-family="Times New Roman,serif" font-size="14.00">None: 3</text>
<text xml:space="preserve" text-anchor="middle" x="440.06" y="-23.7" font-family="Times New Roman,serif" font-size="14.00">Attr: 13</text>
<text xml:space="preserve" text-anchor="middle" x="440.06" y="-7.2" font-family="Times New Roman,serif" font-size="14.00">Total: 20</text>
</g>
</g>
</svg>
