<?xml version="1.0" encoding="UTF-8" standalone="no"?>
<!DOCTYPE svg PUBLIC "-//W3C//DTD SVG 1.1//EN"
 "http://www.w3.org/Graphics/SVG/1.1/DTD/svg11.dtd">
<!-- Generated by graphviz version 14.1.1 (20251213.1925)
 -->
<!-- Title: Dependencies Pages: 1 -->
<svg width="345pt" height="213pt"
 viewBox="0.00 0.00 345.00 213.00" xmlns="http://www.w3.org/2000/svg" xmlns:xlink="http://www.w3.org/1999/xlink">
<g id="graph0" class="graph" transform="scale(1 1) rotate(0) translate(4 208.5)">
<title>Dependencies</title>
<polygon fill="white" stroke="none" points="-4,4 -4,-208.5 340.5,-208.5 340.5,4 -4,4"/>
<text xml:space="preserve" text-anchor="middle" x="168.25" y="-7.2" font-family="Times New Roman,serif" font-size="14.00">simple_base64 &#45; Dependencies</text>
<!-- simple_base64 -->
<g id="node1" class="node">
<title>simple_base64</title>
<polygon fill="lightblue" stroke="black" points="97,-132.5 0,-132.5 0,-96.5 97,-96.5 97,-132.5"/>
<text xml:space="preserve" text-anchor="middle" x="48.5" y="-109.45" font-family="Times New Roman,serif" font-size="14.00">simple_base64</text>
</g>
<!-- simple_testing -->
<g id="node2" class="node">
<title>simple_testing</title>
<polygon fill="lightblue" stroke="black" points="336.5,-204.5 241,-204.5 241,-168.5 336.5,-168.5 336.5,-204.5"/>
<text xml:space="preserve" text-anchor="middle" x="288.75" y="-181.45" font-family="Times New Roman,serif" font-size="14.00">simple_testing</text>
</g>
<!-- simple_base64&#45;&gt;simple_testing -->
<g id="edge1" class="edge">
<title>simple_base64&#45;&gt;simple_testing</title>
<path fill="none" stroke="black" stroke-dasharray="5,2" d="M97.38,-120.5C157.45,-120.5 251.5,-120.5 251.5,-120.5 251.5,-120.5 251.5,-156.6 251.5,-156.6"/>
<polygon fill="black" stroke="black" points="248,-156.6 251.5,-166.6 255,-156.6 248,-156.6"/>
</g>
<!-- base -->
<g id="node3" class="node">
<title>base</title>
<polygon fill="lightgray" stroke="black" points="315.75,-132.5 261.75,-132.5 261.75,-96.5 315.75,-96.5 315.75,-132.5"/>
<text xml:space="preserve" text-anchor="middle" x="288.75" y="-109.45" font-family="Times New Roman,serif" font-size="14.00">base</text>
</g>
<!-- simple_base64&#45;&gt;base -->
<g id="edge2" class="edge">
<title>simple_base64&#45;&gt;base</title>
<path fill="none" stroke="black" stroke-dasharray="5,2" d="M97.41,-108.5C97.41,-108.5 250.05,-108.5 250.05,-108.5"/>
<polygon fill="black" stroke="black" points="250.05,-112 260.05,-108.5 250.05,-105 250.05,-112"/>
</g>
<!-- testing -->
<g id="node4" class="node">
<title>testing</title>
<polygon fill="lightgray" stroke="black" points="315.75,-60.5 261.75,-60.5 261.75,-24.5 315.75,-24.5 315.75,-60.5"/>
<text xml:space="preserve" text-anchor="middle" x="288.75" y="-37.45" font-family="Times New Roman,serif" font-size="14.00">testing</text>
</g>
<!-- simple_base64&#45;&gt;testing -->
<g id="edge3" class="edge">
<title>simple_base64&#45;&gt;testing</title>
<path fill="none" stroke="black" stroke-dasharray="5,2" d="M48.5,-96.33C48.5,-75 48.5,-42.5 48.5,-42.5 48.5,-42.5 250.14,-42.5 250.14,-42.5"/>
<polygon fill="black" stroke="black" points="250.14,-46 260.14,-42.5 250.14,-39 250.14,-46"/>
</g>
</g>
</svg>
